<?xml version="1.0" encoding="utf-8"?>
<!-- Generator: Adobe Illustrator 16.0.0, SVG Export Plug-In . SVG Version: 6.00 Build 0)  -->
<!DOCTYPE svg PUBLIC "-//W3C//DTD SVG 1.1//EN" "http://www.w3.org/Graphics/SVG/1.1/DTD/svg11.dtd">
<svg version="1.1" id="Layer_1" xmlns="http://www.w3.org/2000/svg" xmlns:xlink="http://www.w3.org/1999/xlink" x="0px" y="0px"
	 width="2355.555px" height="400px" viewBox="-647.778 -110 2355.555 400" enable-background="new -647.778 -110 2355.555 400"
	 xml:space="preserve">
<path fill="#871719" d="M1694.227,40.911l-0.521-8.923c1.682-94.269,6.64-136.553,3.845-140.846
	c-2.022-1.715-16.674-0.579-19.647-0.482c-3.922,0.129-15.355,0.896-23.992,1.023c-15.369,0.229-31.049-0.246-46.216-0.706
	c-6.372-0.191-12.749-0.383-19.132-0.528c-8.539-0.168-17.075-0.302-25.614-0.433c-24.535-0.384-44.733,5.54-69.729,4.352
	c-14.831-0.641-29.897-0.763-44.458-0.878c-19.001-0.14-38.646-0.29-57.965-1.62c-4.097-0.272-8.362-0.372-13.036-0.301
	c-8.503,0.124-17.106,0.807-25.427,1.463c-8.272,0.65-16.837,1.327-25.229,1.454c-6.773,0.102-12.811-0.16-18.468-0.808
	c-6.762-0.773-13.903-1.08-22.47-0.949c-6.635,0.096-13.357,0.445-19.858,0.785c-6.482,0.331-13.165,0.68-19.735,0.777
	c-9.534,0.145-17.397-0.261-24.748-1.268c-6.332-0.845-13.138-1.202-20.791-1.088c-8.424,0.123-16.937,0.802-25.178,1.456
	c-8.176,0.652-16.625,1.321-24.921,1.446c-5.526,0.083-10.499-0.081-15.208-0.501c-6.628-0.641-13.396-0.921-20.134-0.818
	c-9.452,0.14-19.135,1.133-28.847,2.638c-9.711,1.503-38.702,1.554-53.864,1.096c-6.376-0.192-12.753-0.389-19.13-0.528
	c-8.543-0.169-17.08-0.301-25.614-0.434c-24.542-0.385-49.907-0.783-74.902-1.967c-14.833-0.645-29.896-0.764-44.456-0.878
	c-19-0.142-38.646-0.291-57.967-1.62c-4.099-0.273-8.361-0.375-13.033-0.302c-8.506,0.123-17.113,0.806-25.435,1.462
	c-8.269,0.652-16.83,1.329-25.228,1.456c-6.77,0.102-12.808-0.16-18.467-0.809c-6.758-0.775-13.903-1.08-22.47-0.949
	c-6.635,0.096-13.358,0.446-19.859,0.786c-6.479,0.33-13.165,0.68-19.737,0.776c-9.534,0.146-17.394-0.259-24.745-1.267
	c-6.332-0.847-13.135-1.201-20.788-1.088c-8.425,0.124-16.938,0.801-25.182,1.455c-8.173,0.652-16.627,1.323-24.916,1.447
	c-5.527,0.082-10.501-0.085-15.213-0.5c-6.625-0.642-13.396-0.921-20.133-0.818c-9.448,0.14-20.77,1.809-28.847,2.636
	c-2.992,1.224-38.7,1.552-53.861,1.095c-6.378-0.19-12.751-0.385-19.13-0.527c-8.542-0.168-17.083-0.305-25.621-0.436
	c-24.535-0.384-49.901-0.78-74.898-1.965c-14.827-0.646-29.89-0.765-44.457-0.881c-19-0.141-38.646-0.292-57.966-1.619
	c-4.093-0.273-8.358-0.375-13.032-0.303c-8.502,0.123-17.11,0.807-25.432,1.465c-8.269,0.652-16.829,1.327-25.227,1.453
	c-6.769,0.103-12.812-0.162-18.466-0.808c-6.763-0.773-13.901-1.078-22.47-0.949c-6.635,0.095-13.356,0.445-19.86,0.787
	c-6.479,0.331-13.168,0.682-19.737,0.777c-9.533,0.146-17.394-0.26-24.745-1.268c-6.334-0.844-13.136-1.202-20.792-1.089
	c-8.426,0.126-16.936,0.804-25.174,1.456c-8.177,0.652-16.633,1.321-24.922,1.448c-5.529,0.082-10.505-0.084-15.215-0.503
	c-6.625-0.644-13.393-0.921-20.131-0.819c-9.449,0.143-43.544,2.421-54.187,2.935c-14.101,0.104-31.396,0.415-37.776,0.273
	c-8.543-0.171-17.082-0.304-25.616-0.435c-24.539-0.385-49.906-0.781-74.901-1.968c-14.827-0.643-29.893-0.765-44.455-0.878
	c-19.001-0.142-38.646-0.292-57.965-1.619c-4.092-0.273-8.361-0.375-13.034-0.301c-8.503,0.123-17.108,0.806-25.431,1.461
	c-8.269,0.651-16.83,1.329-25.229,1.453c-6.771,0.104-12.811-0.158-18.467-0.806c-6.76-0.774-13.9-1.08-22.47-0.949
	c-6.635,0.098-13.359,0.445-19.858,0.785c-6.482,0.333-13.169,0.683-19.738,0.775c-9.533,0.148-17.391-0.258-24.746-1.266
	c-6.332-0.847-13.133-1.202-20.789-1.09c-8.424,0.125-16.938,0.803-25.178,1.457c-8.178,0.654-16.634,1.324-24.925,1.45
	c-5.528,0.082-10.502-0.082-15.213-0.5c-6.625-0.641-13.394-0.92-20.132-0.819c-9.451,0.145-19.155,1.024-28.85,2.638
	c-4.368,0.756-3.729,21.498-3.252,30.382c4.625,86.281,3.044,205.559,3.364,237.178c0.322,31.619-1.952,60.514-2.01,78.989
	c-0.044,14.926-4.316,17.553-1.693,35.492c13.508,3.525,43.318,0.104,56.323,0.277c5.878,0.086,11.968,0.177,17.958,0.571
	c10.498,0.629,21.154,0.683,31.454,0.723c10.568,0.056,21.497,0.104,32.214,0.784c27.484,1.731,55.359,1.569,82.313,1.399
	c8.961-0.051,17.916-0.11,26.86-0.093c1.951,0.01,4.209,0,6.73-0.045c15.332-0.223,40.918-1.285,65.666-2.305
	c25.565-1.062,52.008-2.162,68.343-2.4c5.79-0.088,10.102-0.062,12.823,0.076c9.676,0.452,19.637,1.609,29.269,2.735
	c8.919,1.039,18.146,2.124,27.19,2.631c3.469,0.194,7.014,0.251,10.83,0.202c10.376-0.155,20.854-1.198,30.995-2.213
	c10.06-1.004,20.461-2.046,30.695-2.2c3.976-0.062,7.653,0.01,11.237,0.224c10.34,0.66,20.87,0.715,31.046,0.78
	c11.918,0.061,50.146-0.881,54.48-0.82c5.88,0.084,11.969,0.173,17.959,0.567c10.495,0.629,21.151,0.677,31.456,0.722
	c10.566,0.052,21.493,0.105,32.215,0.788c27.486,1.728,55.756,6.279,82.707,6.109c8.964-0.049,20.896-3.099,29.841-3.081
	c1.95,0.01,4.208,0,6.732-0.041c15.328-0.223,40.918-1.286,65.664-2.307c25.566-1.062,52.008-2.163,68.342-2.398
	c5.791-0.086,10.104-0.062,12.826,0.076c9.677,0.445,19.637,1.608,29.267,2.734c8.919,1.04,18.146,2.121,27.188,2.629
	c3.466,0.192,7.015,0.247,10.83,0.203c10.378-0.158,20.857-1.206,30.997-2.219c10.061-1.001,20.462-2.043,30.692-2.196
	c3.978-0.056,7.657,0.01,11.24,0.218c10.34,0.662,20.869,0.724,31.048,0.784c11.915,0.06,56.537-5.634,63.964-5.535
	c5.879,0.088,11.971,0.174,17.963,0.572c10.493,0.624,21.149,0.683,31.451,0.724c10.566,0.054,21.498,0.104,32.217,0.781
	c27.487,1.732,55.361,1.573,82.312,1.401c8.962-0.051,17.916-0.11,26.857-0.093c1.953,0.008,4.214,0.003,6.736-0.043
	c15.326-0.224,40.755,5.258,65.497,4.236c25.566-1.061,52.492-1.478,68.829-1.72c5.789-0.082,10.103-0.056,12.821,0.078
	c9.676,0.449,19.574,2.341,29.263,2.733c96.327,3.952,203.689-1.446,211.118-1.347c5.877,0.086,11.971,0.174,17.957,0.571
	c10.496,0.625,21.15,0.679,31.457,0.719c10.567,0.054,21.493,0.104,32.214,0.788c27.487,1.727,59.983,0.423,86.938,0.258
	c8.964-0.051,17.912-0.108,26.857-0.093c1.952,0.011,4.21,0,6.733-0.043c15.327-0.225,40.919-1.286,65.662-2.307
	c25.565-1.062,45.558-3.035,61.892-3.274c5.79-0.086,10.105-0.06,12.825,0.074c9.675,0.446,19.64,1.61,29.264,2.735
	c8.923,1.039,18.149,2.125,27.189,2.63c3.466,0.188,7.017,0.251,10.831,0.201c10.379-0.151,20.854-1.201,30.998-2.214
	c10.06-1.007,17.871-0.364,28.103-0.519c3.979-0.056,7.657,0.012,11.237,0.217c10.346,0.664,20.869,0.724,31.048,0.783
	c11.917,0.062,24.243,0.136,36.298,1.163c0.338,0.03,0.669,0.047,0.982,0.047c1.457-0.026,2.599-0.524,3.482-1.547
	C1704.558,277.087,1706.134,244.098,1694.227,40.911z"/>
<path fill="#FFFFFF" stroke="#000000" stroke-miterlimit="10" d="M772.667,257.334"/>
</svg>
